<?xml version="1.0" encoding="UTF-8"?>
<!DOCTYPE svg PUBLIC "-//W3C//DTD SVG 1.1//EN" "http://www.w3.org/Graphics/SVG/1.1/DTD/svg11.dtd">
<svg xmlns="http://www.w3.org/2000/svg" version="1.1" width="577px" height="96px" style="shape-rendering:geometricPrecision; text-rendering:geometricPrecision; image-rendering:optimizeQuality; fill-rule:evenodd; clip-rule:evenodd" xmlns:xlink="http://www.w3.org/1999/xlink">
<g><path style="opacity:0.639" fill="#c0c0c0" d="M 554.5,25.5 C 554.833,21.5 555.167,17.5 555.5,13.5C 551.5,13.5 547.5,13.5 543.5,13.5C 543.768,15.099 543.434,16.4324 542.5,17.5C 542.141,15.2341 542.808,13.4007 544.5,12C 548.5,11.3333 552.5,11.3333 556.5,12C 557.022,12.5613 557.355,13.228 557.5,14C 556.673,18.0067 555.673,21.84 554.5,25.5 Z"/></g>
<g><path style="opacity:0.856" fill="#a1a1a1" d="M 61.5,16.5 C 55.5,16.5 49.5,16.5 43.5,16.5C 49.5,13.8333 55.5,13.8333 61.5,16.5 Z"/></g>
<g><path style="opacity:0.699" fill="#b0b0b0" d="M 291.5,32.5 C 292.006,27.4767 292.673,22.4767 293.5,17.5C 289.833,17.5 286.167,17.5 282.5,17.5C 282.737,18.791 282.404,19.791 281.5,20.5C 280.205,18.6283 280.372,16.9617 282,15.5C 286.452,16.1409 290.952,16.8076 295.5,17.5C 294.297,22.6548 292.963,27.6548 291.5,32.5 Z"/></g>
<g><path style="opacity:0.635" fill="#a7a7a7" d="M 408.5,20.5 C 408.5,19.5 408.5,18.5 408.5,17.5C 404.167,17.5 399.833,17.5 395.5,17.5C 395.737,18.791 395.404,19.791 394.5,20.5C 394.5,19.1667 394.5,17.8333 394.5,16.5C 399.5,16.5 404.5,16.5 409.5,16.5C 409.768,18.099 409.434,19.4324 408.5,20.5 Z"/></g>
<g><path style="opacity:0.631" fill="#a9a9a9" d="M 437.5,22.5 C 437.5,20.8333 437.5,19.1667 437.5,17.5C 433.486,17.3345 429.486,17.5012 425.5,18C 424.901,19.6225 424.234,21.1225 423.5,22.5C 423.261,20.5328 423.594,18.6995 424.5,17C 429.155,16.5008 433.821,16.3342 438.5,16.5C 438.795,18.7354 438.461,20.7354 437.5,22.5 Z"/></g>
<g><path style="opacity:1" fill="#6c6c6c" d="M 43.5,16.5 C 49.5,16.5 55.5,16.5 61.5,16.5C 63.099,16.2322 64.4324,16.5655 65.5,17.5C 65.7923,19.9572 65.7923,22.6239 65.5,25.5C 64.7321,26.2625 64.2321,27.2625 64,28.5C 63.6174,27.944 63.1174,27.6107 62.5,27.5C 61.3536,25.525 59.687,24.025 57.5,23C 48.638,21.5134 41.4713,24.3467 36,31.5C 33.9005,34.6999 32.0672,38.0333 30.5,41.5C 28.7773,43.78 28.1107,46.4467 28.5,49.5C 28.4072,56.0617 30.0739,62.0617 33.5,67.5C 33.8212,69.0481 34.8212,69.7148 36.5,69.5C 37.4916,69.3284 38.1583,69.6618 38.5,70.5C 42.2315,71.1955 46.0648,71.8622 50,72.5C 50.9138,71.3463 51.7471,71.513 52.5,73C 51.695,74.1127 51.0283,75.2794 50.5,76.5C 50.1667,76.5 49.8333,76.5 49.5,76.5C 42.7978,76.6643 36.1311,76.331 29.5,75.5C 22.5,73.1667 17.8333,68.5 15.5,61.5C 15.0622,53.3529 15.7289,45.3529 17.5,37.5C 17.3284,36.5084 17.6618,35.8417 18.5,35.5C 20.2624,34.7377 21.2624,33.4044 21.5,31.5C 22.9063,31.0269 23.573,30.0269 23.5,28.5C 23.8333,27.5 24.5,26.8333 25.5,26.5C 27.4044,26.2624 28.7377,25.2624 29.5,23.5C 29.5,22.8333 29.8333,22.5 30.5,22.5C 32.0269,22.573 33.0269,21.9063 33.5,20.5C 36.3399,18.0849 39.6733,16.7516 43.5,16.5 Z"/></g>
<g><path style="opacity:0.639" fill="#b9b9b9" d="M 334.5,16.5 C 334.027,17.9063 333.027,18.573 331.5,18.5C 331.973,17.0937 332.973,16.427 334.5,16.5 Z"/></g>
<g><path style="opacity:1" fill="#6d6d6d" d="M 355.5,21.5 C 355.54,24.8806 355.207,28.2139 354.5,31.5C 352.564,35.3109 349.564,37.9775 345.5,39.5C 344.325,39.281 343.325,39.6143 342.5,40.5C 342.624,41.1067 342.957,41.44 343.5,41.5C 344.338,41.8417 344.672,42.5084 344.5,43.5C 344.427,45.0269 345.094,46.0269 346.5,46.5C 346.427,48.0269 347.094,49.0269 348.5,49.5C 348.75,50.9221 349.583,51.9221 351,52.5C 352.183,51.269 353.349,51.269 354.5,52.5C 351.879,54.978 351.879,57.3114 354.5,59.5C 354.427,61.0269 355.094,62.0269 356.5,62.5C 355.68,66.1834 357.013,68.5168 360.5,69.5C 360.427,71.0269 361.094,72.0269 362.5,72.5C 362.414,73.4959 362.748,74.3292 363.5,75C 357.795,76.0668 352.461,75.2334 347.5,72.5C 346.094,72.0269 345.427,71.0269 345.5,69.5C 342.346,65.2318 340.68,65.8985 340.5,71.5C 338.181,74.2945 335.181,76.1278 331.5,77C 327.167,77.6667 322.833,77.6667 318.5,77C 317.584,76.7216 316.918,76.2216 316.5,75.5C 316.027,74.0937 315.027,73.427 313.5,73.5C 313.167,72.5 312.5,71.8333 311.5,71.5C 306.655,66.0975 306.322,60.4309 310.5,54.5C 311.906,54.0269 312.573,53.0269 312.5,51.5C 314.5,50.1667 316.167,48.5 317.5,46.5C 321.367,45.7375 324.367,43.7375 326.5,40.5C 323.676,34.4196 323.843,28.4196 327,22.5C 327.708,21.6195 328.542,20.9528 329.5,20.5C 330.5,20.1667 331.167,19.5 331.5,18.5C 333.027,18.573 334.027,17.9063 334.5,16.5C 340.546,13.7433 346.546,13.9099 352.5,17C 354.141,18.129 355.141,19.629 355.5,21.5 Z M 343.5,21.5 C 346.33,26.9262 345.163,31.5928 340,35.5C 339.722,34.5842 339.222,33.9175 338.5,33.5C 338.011,32.0048 337.345,30.6715 336.5,29.5C 336.517,27.4352 336.85,25.4352 337.5,23.5C 339.142,21.9192 341.142,21.2525 343.5,21.5 Z M 333.5,50.5 C 333.932,51.7095 334.599,52.7095 335.5,53.5C 337.128,56.419 338.462,59.419 339.5,62.5C 337.07,64.9449 334.404,66.9449 331.5,68.5C 322.915,67.639 320.081,62.9723 323,54.5C 324.569,50.928 326.902,47.928 330,45.5C 331.189,47.2331 332.356,48.8998 333.5,50.5 Z"/></g>
<g><path style="opacity:1" fill="#6b6b6b" d="M 291.5,32.5 C 290.879,37.6055 289.879,42.6055 288.5,47.5C 286.96,49.8383 286.294,52.5049 286.5,55.5C 286.5,55.8333 286.5,56.1667 286.5,56.5C 284.627,60.5152 283.627,64.8485 283.5,69.5C 283.975,72.3126 282.975,74.3126 280.5,75.5C 276.629,75.815 272.962,75.4816 269.5,74.5C 270.167,71.8333 270.833,69.1667 271.5,66.5C 273.04,64.1617 273.706,61.4951 273.5,58.5C 274.692,50.0671 276.358,41.7337 278.5,33.5C 279.924,31.4855 280.59,29.1522 280.5,26.5C 280.205,24.2646 280.539,22.2646 281.5,20.5C 282.404,19.791 282.737,18.791 282.5,17.5C 286.167,17.5 289.833,17.5 293.5,17.5C 292.673,22.4767 292.006,27.4767 291.5,32.5 Z"/></g>
<g><path style="opacity:0.396" fill="#c6c6c6" d="M 331.5,18.5 C 331.167,19.5 330.5,20.1667 329.5,20.5C 329.5,19.1667 330.167,18.5 331.5,18.5 Z"/></g>
<g><path style="opacity:0.999" fill="#6d6d6d" d="M 408.5,20.5 C 408.129,26.0755 407.129,31.4089 405.5,36.5C 404.388,38.5994 403.721,40.9327 403.5,43.5C 409.167,43.5 414.833,43.5 420.5,43.5C 420.5,41.8333 420.5,40.1667 420.5,38.5C 420.871,32.9245 421.871,27.5911 423.5,22.5C 424.234,21.1225 424.901,19.6225 425.5,18C 429.486,17.5012 433.486,17.3345 437.5,17.5C 437.5,19.1667 437.5,20.8333 437.5,22.5C 436.926,27.9452 435.926,33.2786 434.5,38.5C 432.656,42.862 431.656,47.5286 431.5,52.5C 431.5,52.8333 431.5,53.1667 431.5,53.5C 429.544,58.0872 429.211,62.7539 430.5,67.5C 432.167,70.1667 433.833,70.1667 435.5,67.5C 437.527,66.1394 439.194,64.4727 440.5,62.5C 441.117,62.3893 441.617,62.056 442,61.5C 442.501,57.4899 443.001,53.4899 443.5,49.5C 443.66,47.847 444.326,46.5137 445.5,45.5C 448.167,43.5 450.5,41.1667 452.5,38.5C 457.879,34.802 463.879,33.6354 470.5,35C 472.491,35.3736 474.158,36.207 475.5,37.5C 475.738,39.4044 476.738,40.7377 478.5,41.5C 480.47,52.2366 475.803,58.2366 464.5,59.5C 461.167,59.5 457.833,59.5 454.5,59.5C 454.263,60.791 454.596,61.791 455.5,62.5C 455.157,64.4832 455.824,65.8166 457.5,66.5C 457.782,67.7777 458.449,68.7777 459.5,69.5C 458.262,69.81 458.262,70.31 459.5,71C 460.833,71.3333 462.167,71.6667 463.5,72C 462.366,73.016 462.699,73.6827 464.5,74C 462.299,74.8249 460.466,74.3249 459,72.5C 456.376,73.9103 453.543,73.577 450.5,71.5C 449.893,71.6236 449.56,71.9569 449.5,72.5C 449.167,72.5 448.833,72.5 448.5,72.5C 447.738,70.7376 446.404,69.7376 444.5,69.5C 443.377,68.2426 442.711,68.5759 442.5,70.5C 436.384,76.7191 429.384,78.0524 421.5,74.5C 421.027,73.0937 420.027,72.427 418.5,72.5C 416.273,70.1911 415.273,67.3578 415.5,64C 415.701,60.2769 416.367,56.7769 417.5,53.5C 418.451,52.0813 418.784,50.4147 418.5,48.5C 413.167,48.5 407.833,48.5 402.5,48.5C 402.5,49.5 402.5,50.5 402.5,51.5C 402.702,53.9496 402.369,56.283 401.5,58.5C 399.825,61.5072 399.159,64.8405 399.5,68.5C 399.5,68.8333 399.5,69.1667 399.5,69.5C 398.069,70.7804 397.402,72.4471 397.5,74.5C 393.5,74.5 389.5,74.5 385.5,74.5C 385.5,72.5 385.5,70.5 385.5,68.5C 387.857,52.3548 390.857,36.3548 394.5,20.5C 395.404,19.791 395.737,18.791 395.5,17.5C 399.833,17.5 404.167,17.5 408.5,17.5C 408.5,18.5 408.5,19.5 408.5,20.5 Z M 466.5,41.5 C 466.833,42.5 467.5,43.1667 468.5,43.5C 468.167,45.5 467.833,47.5 467.5,49.5C 464.008,52.3859 460.008,53.5526 455.5,53C 456.647,46.688 460.313,42.8547 466.5,41.5 Z"/></g>
<g><path style="opacity:0.553" fill="#989898" d="M 343.5,21.5 C 341.142,21.2525 339.142,21.9192 337.5,23.5C 337.5,22.5 337.5,21.5 337.5,20.5C 339.735,20.2053 341.735,20.5386 343.5,21.5 Z"/></g>
<g><path style="opacity:0.655" fill="#b2b2b2" d="M 33.5,20.5 C 33.0269,21.9063 32.0269,22.573 30.5,22.5C 30.9731,21.0937 31.9731,20.427 33.5,20.5 Z"/></g>
<g><path style="opacity:0.306" fill="#cccccc" d="M 65.5,17.5 C 66.4972,17.4701 67.1639,17.9701 67.5,19C 67.0098,21.3461 66.3432,23.5128 65.5,25.5C 65.7923,22.6239 65.7923,19.9572 65.5,17.5 Z"/></g>
<g><path style="opacity:0.671" fill="#a8a8a8" d="M 29.5,23.5 C 28.7377,25.2624 27.4044,26.2624 25.5,26.5C 26.2623,24.7376 27.5956,23.7376 29.5,23.5 Z"/></g>
<g><path style="opacity:0.102" fill="#dedede" d="M 65.5,25.5 C 65.7852,27.288 65.4519,28.9547 64.5,30.5C 63.0815,29.9953 62.4148,28.9953 62.5,27.5C 63.1174,27.6107 63.6174,27.944 64,28.5C 64.2321,27.2625 64.7321,26.2625 65.5,25.5 Z"/></g>
<g><path style="opacity:0.671" fill="#b4b4b4" d="M 23.5,28.5 C 23.573,30.0269 22.9063,31.0269 21.5,31.5C 21.427,29.9731 22.0937,28.9731 23.5,28.5 Z"/></g>
<g><path style="opacity:0.345" fill="#c5c5c5" d="M 355.5,21.5 C 356.156,22.6216 356.489,23.9549 356.5,25.5C 356.639,27.8825 355.972,29.8825 354.5,31.5C 355.207,28.2139 355.54,24.8806 355.5,21.5 Z"/></g>
<g><path style="opacity:0.333" fill="#c8c8c8" d="M 280.5,26.5 C 280.59,29.1522 279.924,31.4855 278.5,33.5C 278.41,30.8478 279.076,28.5145 280.5,26.5 Z"/></g>
<g><path style="opacity:0.914" fill="#a5a5a5" d="M 336.5,29.5 C 337.345,30.6715 338.011,32.0048 338.5,33.5C 336.824,32.8166 336.157,31.4832 336.5,29.5 Z"/></g>
<g><path style="opacity:0.588" fill="#afafaf" d="M 21.5,31.5 C 21.2624,33.4044 20.2624,34.7377 18.5,35.5C 18.7376,33.5956 19.7376,32.2623 21.5,31.5 Z"/></g>
<g><path style="opacity:0.259" fill="#cfcfcf" d="M 514.5,36.5 C 514.5,36.8333 514.5,37.1667 514.5,37.5C 509.664,35.1923 504.664,34.8589 499.5,36.5C 504.423,33.8493 509.423,33.8493 514.5,36.5 Z"/></g>
<g><path style="opacity:0.235" fill="#d2d2d2" d="M 90.5,36.5 C 86.4659,36.5045 82.4659,36.8379 78.5,37.5C 80.6789,36.0744 83.1789,35.4078 86,35.5C 87.7067,35.5085 89.2067,35.8418 90.5,36.5 Z"/></g>
<g><path style="opacity:0.396" fill="#bfbfbf" d="M 179.5,36.5 C 182.64,35.3592 185.973,35.1925 189.5,36C 190.942,36.3768 191.942,37.2101 192.5,38.5C 188.326,36.936 183.993,36.2694 179.5,36.5 Z"/></g>
<g><path style="opacity:0.341" fill="#cdcdcd" d="M 263.5,36.5 C 258.463,36.4126 253.463,36.746 248.5,37.5C 251.186,36.0092 254.186,35.3425 257.5,35.5C 259.696,35.5046 261.696,35.838 263.5,36.5 Z"/></g>
<g><path style="opacity:0.267" fill="#d1d1d1" d="M 123.5,44.5 C 123.244,42.2075 123.577,40.0408 124.5,38C 119.98,37.1864 115.646,37.353 111.5,38.5C 110.957,38.44 110.624,38.1067 110.5,37.5C 115.456,36.5059 120.456,36.1725 125.5,36.5C 125.198,39.3725 124.531,42.0392 123.5,44.5 Z"/></g>
<g><path style="opacity:0.282" fill="#d1d1d1" d="M 149.5,45.5 C 149.575,42.7938 149.908,40.1272 150.5,37.5C 145.968,37.1818 141.634,37.5151 137.5,38.5C 136.957,38.44 136.624,38.1067 136.5,37.5C 141.456,36.5059 146.456,36.1725 151.5,36.5C 151.58,39.7814 150.913,42.7814 149.5,45.5 Z"/></g>
<g><path style="opacity:0.267" fill="#d3d3d3" d="M 169.5,37.5 C 166.5,37.5 163.5,37.5 160.5,37.5C 160.795,39.7354 160.461,41.7354 159.5,43.5C 159.682,41.4086 159.348,39.4086 158.5,37.5C 162.315,36.1923 165.981,36.1923 169.5,37.5 Z"/></g>
<g><path style="opacity:0.91" fill="#aeaeae" d="M 226.5,36.5 C 220.678,36.2099 215.012,36.8766 209.5,38.5C 210.842,37.207 212.509,36.3736 214.5,36C 218.689,35.1881 222.689,35.3547 226.5,36.5 Z"/></g>
<g><path style="opacity:0.682" fill="#b0b0b0" d="M 499.5,36.5 C 499.027,37.9063 498.027,38.573 496.5,38.5C 496.973,37.0937 497.973,36.427 499.5,36.5 Z"/></g>
<g><path style="opacity:1" fill="#6c6c6c" d="M 554.5,25.5 C 554.5,26.1667 554.5,26.8333 554.5,27.5C 552,33.4669 550.667,39.8002 550.5,46.5C 549.215,49.5885 548.549,52.9219 548.5,56.5C 547.525,59.3112 546.858,62.3112 546.5,65.5C 545.191,68.8374 546.524,70.8374 550.5,71.5C 552.721,70.5764 554.387,71.2431 555.5,73.5C 550.96,76.2956 545.96,77.129 540.5,76C 538.676,75.34 537.343,74.1733 536.5,72.5C 533.128,64.7311 530.794,65.3978 529.5,74.5C 525.394,76.4449 521.061,76.9449 516.5,76C 513.921,74.9243 512.254,73.091 511.5,70.5C 511.289,68.5759 510.623,68.2426 509.5,69.5C 504.798,76.0571 498.464,78.2238 490.5,76C 487.667,74.5 485.5,72.3333 484,69.5C 474.011,76.6878 463.178,78.3544 451.5,74.5C 451.167,73.5 450.5,72.8333 449.5,72.5C 449.56,71.9569 449.893,71.6236 450.5,71.5C 453.543,73.577 456.376,73.9103 459,72.5C 460.466,74.3249 462.299,74.8249 464.5,74C 462.699,73.6827 462.366,73.016 463.5,72C 462.167,71.6667 460.833,71.3333 459.5,71C 458.262,70.31 458.262,69.81 459.5,69.5C 464.12,71.131 468.454,70.7976 472.5,68.5C 479.837,65.661 484.004,60.3277 485,52.5C 485.941,50.2726 487.108,48.2726 488.5,46.5C 490.587,45.4154 491.92,43.7488 492.5,41.5C 494.404,41.2624 495.738,40.2624 496.5,38.5C 498.027,38.573 499.027,37.9063 499.5,36.5C 504.664,34.8589 509.664,35.1923 514.5,37.5C 518.735,36.564 523.069,36.2307 527.5,36.5C 527.5,37.8333 527.5,39.1667 527.5,40.5C 527.634,42.2915 527.301,43.9582 526.5,45.5C 524.989,48.5443 524.322,51.8776 524.5,55.5C 524.5,55.8333 524.5,56.1667 524.5,56.5C 523.028,58.1175 522.361,60.1175 522.5,62.5C 522.511,64.0451 522.844,65.3784 523.5,66.5C 523.791,67.6491 524.624,68.3158 526,68.5C 527.07,68.472 527.903,68.1386 528.5,67.5C 528.842,66.6618 529.508,66.3284 530.5,66.5C 531.906,66.0269 532.573,65.0269 532.5,63.5C 532.328,62.5084 532.662,61.8417 533.5,61.5C 535.28,60.0101 535.946,58.0101 535.5,55.5C 537.325,42.7086 539.659,30.042 542.5,17.5C 543.434,16.4324 543.768,15.099 543.5,13.5C 547.5,13.5 551.5,13.5 555.5,13.5C 555.167,17.5 554.833,21.5 554.5,25.5 Z M 511.5,43.5 C 512.11,44.391 512.443,45.391 512.5,46.5C 512.5,47.1667 512.5,47.8333 512.5,48.5C 510.796,51.9385 509.462,55.6052 508.5,59.5C 507.326,60.5137 506.66,61.847 506.5,63.5C 505.094,63.9731 504.427,64.9731 504.5,66.5C 502.847,66.6596 501.514,67.3263 500.5,68.5C 500.167,68.5 499.833,68.5 499.5,68.5C 499.167,67.5 498.5,66.8333 497.5,66.5C 497.505,62.4659 497.838,58.4659 498.5,54.5C 500.297,50.44 502.963,46.94 506.5,44C 508.134,43.5065 509.801,43.3398 511.5,43.5 Z"/></g>
<g><path style="opacity:0.503" fill="#b7b7b7" d="M 527.5,40.5 C 527.5,39.1667 527.5,37.8333 527.5,36.5C 523.069,36.2307 518.735,36.564 514.5,37.5C 514.5,37.1667 514.5,36.8333 514.5,36.5C 518.97,35.5139 523.637,35.1805 528.5,35.5C 528.784,37.4147 528.451,39.0813 527.5,40.5 Z"/></g>
<g><path style="opacity:0.439" fill="#c2c2c2" d="M 554.5,27.5 C 553.657,34.0569 552.323,40.3902 550.5,46.5C 550.667,39.8002 552,33.4669 554.5,27.5 Z"/></g>
<g><path style="opacity:1" fill="#6e6e6e" d="M 123.5,44.5 C 122.99,49.3914 121.99,54.058 120.5,58.5C 119.367,60.0552 118.701,61.8886 118.5,64C 118.387,65.6991 119.053,66.8658 120.5,67.5C 121.014,69.4387 122.347,70.4387 124.5,70.5C 126.038,70.5466 127.038,69.8799 127.5,68.5C 129.5,67.1667 131.167,65.5 132.5,63.5C 134.28,62.0101 134.946,60.0101 134.5,57.5C 135.628,51.1912 136.628,44.8579 137.5,38.5C 141.634,37.5151 145.968,37.1818 150.5,37.5C 149.908,40.1272 149.575,42.7938 149.5,45.5C 148.462,53.7565 146.796,61.7565 144.5,69.5C 143.539,71.2646 143.205,73.2646 143.5,75.5C 140.167,75.5 136.833,75.5 133.5,75.5C 132.542,75.0472 131.708,74.3805 131,73.5C 125.608,77.4857 119.775,78.4857 113.5,76.5C 113.027,75.0937 112.027,74.427 110.5,74.5C 107.693,72.0416 106.359,68.8749 106.5,65C 108.104,56.1463 109.771,47.313 111.5,38.5C 115.646,37.353 119.98,37.1864 124.5,38C 123.577,40.0408 123.244,42.2075 123.5,44.5 Z"/></g>
<g><path style="opacity:1" fill="#6f6f6f" d="M 179.5,36.5 C 183.993,36.2694 188.326,36.936 192.5,38.5C 195.559,40.7784 197.226,43.945 197.5,48C 195.948,55.4788 194.448,62.9788 193,70.5C 192.777,72.8808 191.61,74.5475 189.5,75.5C 185.629,75.815 181.962,75.4816 178.5,74.5C 181.452,65.0355 182.952,55.3688 183,45.5C 179.243,43.9046 175.91,44.5713 173,47.5C 169.784,55.9042 167.451,64.5709 166,73.5C 165.292,74.3805 164.458,75.0472 163.5,75.5C 159.818,75.6653 156.152,75.4986 152.5,75C 154.113,72.7724 154.78,70.2724 154.5,67.5C 154.988,62.0623 155.988,56.729 157.5,51.5C 158.924,49.4855 159.59,47.1522 159.5,44.5C 159.5,44.1667 159.5,43.8333 159.5,43.5C 160.461,41.7354 160.795,39.7354 160.5,37.5C 163.5,37.5 166.5,37.5 169.5,37.5C 169.833,37.5 170.167,37.5 170.5,37.5C 171.577,40.972 173.244,41.3053 175.5,38.5C 176.514,37.3263 177.847,36.6596 179.5,36.5 Z"/></g>
<g><path style="opacity:1" fill="#707070" d="M 226.5,36.5 C 227.791,36.2627 228.791,36.596 229.5,37.5C 228.949,40.8067 228.616,44.1401 228.5,47.5C 226.475,45.8036 224.475,44.137 222.5,42.5C 221.551,41.8476 220.385,41.5143 219,41.5C 216.992,41.3068 215.492,41.9735 214.5,43.5C 214.5,44.1667 214.167,44.5 213.5,44.5C 212.402,45.6009 212.235,46.9343 213,48.5C 213.671,49.2524 214.504,49.5858 215.5,49.5C 217.819,49.9925 219.819,50.9925 221.5,52.5C 222.785,54.4516 224.451,56.1182 226.5,57.5C 229.875,67.5609 226.209,74.0609 215.5,77C 210.316,77.8163 205.316,77.6497 200.5,76.5C 199.659,74.6208 199.325,72.6208 199.5,70.5C 199.5,69.8333 199.5,69.1667 199.5,68.5C 200.167,67.8333 200.833,67.1667 201.5,66.5C 202.29,67.7942 203.29,68.9609 204.5,70C 207.894,70.7517 211.227,70.5851 214.5,69.5C 215.888,68.4091 216.388,67.0758 216,65.5C 214.035,63.4497 211.868,61.783 209.5,60.5C 209.027,59.0937 208.027,58.427 206.5,58.5C 204.827,57.657 203.66,56.3237 203,54.5C 202.333,51.5 202.333,48.5 203,45.5C 203.278,44.5842 203.778,43.9175 204.5,43.5C 206.5,42.1667 208.167,40.5 209.5,38.5C 215.012,36.8766 220.678,36.2099 226.5,36.5 Z"/></g>
<g><path style="opacity:0.655" fill="#bebebe" d="M 475.5,37.5 C 477.262,38.2623 478.262,39.5956 478.5,41.5C 476.738,40.7377 475.738,39.4044 475.5,37.5 Z"/></g>
<g><path style="opacity:0.306" fill="#c9c9c9" d="M 170.5,37.5 C 171.458,37.9528 172.292,38.6195 173,39.5C 173.671,38.7476 174.504,38.4142 175.5,38.5C 173.244,41.3053 171.577,40.972 170.5,37.5 Z"/></g>
<g><path style="opacity:0.557" fill="#bdbdbd" d="M 209.5,38.5 C 208.167,40.5 206.5,42.1667 204.5,43.5C 205.167,40.8333 206.833,39.1667 209.5,38.5 Z"/></g>
<g><path style="opacity:0.671" fill="#a8a8a8" d="M 496.5,38.5 C 495.738,40.2624 494.404,41.2624 492.5,41.5C 493.262,39.7376 494.596,38.7376 496.5,38.5 Z"/></g>
<g><path style="opacity:0.396" fill="#c3c3c3" d="M 345.5,39.5 C 344.833,40.1667 344.167,40.8333 343.5,41.5C 342.957,41.44 342.624,41.1067 342.5,40.5C 343.325,39.6143 344.325,39.281 345.5,39.5 Z"/></g>
<g><path style="opacity:0.808" fill="#aaaaaa" d="M 98.5,40.5 C 100.262,41.2623 101.262,42.5956 101.5,44.5C 99.7376,43.7377 98.7376,42.4044 98.5,40.5 Z"/></g>
<g><path style="opacity:0.271" fill="#c6c6c6" d="M 222.5,42.5 C 219.763,42.4013 217.096,42.7347 214.5,43.5C 215.492,41.9735 216.992,41.3068 219,41.5C 220.385,41.5143 221.551,41.8476 222.5,42.5 Z"/></g>
<g><path style="opacity:0.386" fill="#bcbcbc" d="M 364.5,44.5 C 363.666,43.2521 362.333,42.5854 360.5,42.5C 358.545,42.7245 356.879,43.3911 355.5,44.5C 355.5,43.5 355.5,42.5 355.5,41.5C 359.226,41.1774 362.893,41.5108 366.5,42.5C 366.145,43.5223 365.478,44.189 364.5,44.5 Z"/></g>
<g><path style="opacity:0.553" fill="#c6c6c6" d="M 466.5,41.5 C 467.833,41.5 468.5,42.1667 468.5,43.5C 467.5,43.1667 466.833,42.5 466.5,41.5 Z"/></g>
<g><path style="opacity:1" fill="#6f6f6f" d="M 90.5,36.5 C 93.7541,36.7936 96.4208,38.127 98.5,40.5C 98.7376,42.4044 99.7376,43.7377 101.5,44.5C 104.385,51.5722 103.885,58.5722 100,65.5C 98.9609,66.7101 97.7942,67.7101 96.5,68.5C 95.5,68.8333 94.8333,69.5 94.5,70.5C 92.1267,74.0231 88.7934,76.0231 84.5,76.5C 79.4635,76.5874 74.4635,76.254 69.5,75.5C 68.7377,73.7376 67.4044,72.7376 65.5,72.5C 65.4456,70.368 64.4456,69.0347 62.5,68.5C 59.3477,60.4257 60.681,53.0924 66.5,46.5C 68.5,45.1667 70.1667,43.5 71.5,41.5C 73.3356,39.412 75.6689,38.0787 78.5,37.5C 82.4659,36.8379 86.4659,36.5045 90.5,36.5 Z M 89.5,47.5 C 89.5,51.8333 89.5,56.1667 89.5,60.5C 88.0687,61.7804 87.4021,63.4471 87.5,65.5C 85.7209,69.4465 82.7209,70.9465 78.5,70C 75.9973,67.1632 74.6639,63.8298 74.5,60C 74.8902,54.8698 76.2235,50.0365 78.5,45.5C 82.8963,41.5111 86.5629,42.1778 89.5,47.5 Z"/></g>
<g><path style="opacity:0.986" fill="#929292" d="M 89.5,47.5 C 86.5629,42.1778 82.8963,41.5111 78.5,45.5C 78.5,44.1667 78.5,42.8333 78.5,41.5C 81.7766,41.7839 84.9433,41.4505 88,40.5C 89.2022,42.6775 89.7022,45.0108 89.5,47.5 Z"/></g>
<g><path style="opacity:0.839" fill="#9f9f9f" d="M 244.5,39.5 C 243.415,41.5869 241.749,42.9202 239.5,43.5C 240.585,41.4131 242.251,40.0798 244.5,39.5 Z"/></g>
<g><path style="opacity:0.251" fill="#cdcdcd" d="M 405.5,36.5 C 405.739,38.4672 405.406,40.3005 404.5,42C 409.489,42.4993 414.489,42.6659 419.5,42.5C 419.232,40.901 419.566,39.5676 420.5,38.5C 420.5,40.1667 420.5,41.8333 420.5,43.5C 414.833,43.5 409.167,43.5 403.5,43.5C 403.721,40.9327 404.388,38.5994 405.5,36.5 Z"/></g>
<g><path style="opacity:0.639" fill="#b9b9b9" d="M 452.5,38.5 C 450.5,41.1667 448.167,43.5 445.5,45.5C 446.833,42.1667 449.167,39.8333 452.5,38.5 Z"/></g>
<g><path style="opacity:0.78" fill="#b1b1b1" d="M 492.5,41.5 C 491.92,43.7488 490.587,45.4154 488.5,46.5C 489.08,44.2512 490.413,42.5846 492.5,41.5 Z"/></g>
<g><path style="opacity:1" fill="#707070" d="M 263.5,36.5 C 269.802,38.1007 272.302,42.1007 271,48.5C 266.788,54.5269 260.954,57.8603 253.5,58.5C 251.102,58.2594 249.102,58.9261 247.5,60.5C 247.167,60.5 246.833,60.5 246.5,60.5C 245.414,60.62 244.747,61.2867 244.5,62.5C 244.543,63.4164 244.876,64.0831 245.5,64.5C 246.488,65.795 247.488,67.1283 248.5,68.5C 248.611,69.1174 248.944,69.6174 249.5,70C 252.5,70.6667 255.5,70.6667 258.5,70C 259.056,69.6174 259.389,69.1174 259.5,68.5C 261.446,69.0347 262.446,70.368 262.5,72.5C 260.88,74.9842 258.547,76.4842 255.5,77C 239.174,79.666 231.341,72.8327 232,56.5C 232.387,53.4006 233.554,50.734 235.5,48.5C 236.906,48.0269 237.573,47.0269 237.5,45.5C 237.833,44.5 238.5,43.8333 239.5,43.5C 241.749,42.9202 243.415,41.5869 244.5,39.5C 245.514,38.3263 246.847,37.6596 248.5,37.5C 253.463,36.746 258.463,36.4126 263.5,36.5 Z M 255.5,51.5 C 252.603,52.129 249.936,53.129 247.5,54.5C 247.167,54.5 246.833,54.5 246.5,54.5C 245.596,53.791 245.263,52.791 245.5,51.5C 246.909,46.7137 250.075,43.7137 255,42.5C 257.5,42.3333 258.667,43.5 258.5,46C 258.137,48.1923 257.137,50.0256 255.5,51.5 Z"/></g>
<g><path style="opacity:0.994" fill="#939393" d="M 326.5,40.5 C 324.367,43.7375 321.367,45.7375 317.5,46.5C 319.975,43.7589 322.975,41.7589 326.5,40.5 Z"/></g>
<g><path style="opacity:0.451" fill="#cdcdcd" d="M 30.5,41.5 C 30.1977,44.3725 29.531,47.0392 28.5,49.5C 28.1107,46.4467 28.7773,43.78 30.5,41.5 Z"/></g>
<g><path style="opacity:0.557" fill="#bdbdbd" d="M 71.5,41.5 C 70.1667,43.5 68.5,45.1667 66.5,46.5C 67.1667,43.8333 68.8333,42.1667 71.5,41.5 Z"/></g>
<g><path style="opacity:0.282" fill="#cacaca" d="M 229.5,37.5 C 230.494,40.8969 230.16,44.2302 228.5,47.5C 228.616,44.1401 228.949,40.8067 229.5,37.5 Z"/></g>
<g><path style="opacity:1" fill="#6c6c6c" d="M 364.5,44.5 C 363.167,46.1667 361.833,47.8333 360.5,49.5C 359.778,49.0825 359.278,48.4158 359,47.5C 357.507,49.3476 355.674,50.1809 353.5,50C 354.861,48.4157 355.528,46.5824 355.5,44.5C 356.879,43.3911 358.545,42.7245 360.5,42.5C 362.333,42.5854 363.666,43.2521 364.5,44.5 Z"/></g>
<g><path style="opacity:0.345" fill="#c3c3c3" d="M 434.5,38.5 C 434.13,43.422 433.13,48.0886 431.5,52.5C 431.656,47.5286 432.656,42.862 434.5,38.5 Z"/></g>
<g><path style="opacity:0.3" fill="#c5c5c5" d="M 213.5,44.5 C 213.392,46.5138 214.058,48.1805 215.5,49.5C 214.504,49.5858 213.671,49.2524 213,48.5C 212.235,46.9343 212.402,45.6009 213.5,44.5 Z"/></g>
<g><path style="opacity:0.451" fill="#b7b7b7" d="M 344.5,43.5 C 345.906,43.9731 346.573,44.9731 346.5,46.5C 345.094,46.0269 344.427,45.0269 344.5,43.5 Z"/></g>
<g><path style="opacity:0.322" fill="#c1c1c1" d="M 511.5,43.5 C 513.552,44.0527 513.885,45.0527 512.5,46.5C 512.443,45.391 512.11,44.391 511.5,43.5 Z"/></g>
<g><path style="opacity:0.427" fill="#c1c1c1" d="M 237.5,45.5 C 237.573,47.0269 236.906,48.0269 235.5,48.5C 235.427,46.9731 236.094,45.9731 237.5,45.5 Z"/></g>
<g><path style="opacity:0.993" fill="#878787" d="M 355.5,44.5 C 355.528,46.5824 354.861,48.4157 353.5,50C 355.674,50.1809 357.507,49.3476 359,47.5C 359.278,48.4158 359.778,49.0825 360.5,49.5C 358.372,52.1303 356.039,54.6303 353.5,57C 354.252,57.6708 354.586,58.5041 354.5,59.5C 351.879,57.3114 351.879,54.978 354.5,52.5C 353.349,51.269 352.183,51.269 351,52.5C 349.583,51.9221 348.75,50.9221 348.5,49.5C 349.117,49.6107 349.617,49.944 350,50.5C 351.331,48.0038 353.164,46.0038 355.5,44.5 Z"/></g>
<g><path style="opacity:0.871" fill="#a2a2a2" d="M 468.5,43.5 C 469.139,44.0968 469.472,44.9302 469.5,46C 469.613,47.6991 468.947,48.8658 467.5,49.5C 467.833,47.5 468.167,45.5 468.5,43.5 Z"/></g>
<g><path style="opacity:0.082" fill="#d3d3d3" d="M 159.5,44.5 C 159.59,47.1522 158.924,49.4855 157.5,51.5C 157.41,48.8478 158.076,46.5145 159.5,44.5 Z"/></g>
<g><path style="opacity:0.294" fill="#cccccc" d="M 346.5,46.5 C 347.906,46.9731 348.573,47.9731 348.5,49.5C 347.094,49.0269 346.427,48.0269 346.5,46.5 Z"/></g>
<g><path style="opacity:0.637" fill="#9f9f9f" d="M 417.5,53.5 C 417.5,52.1667 417.5,50.8333 417.5,49.5C 412.193,48.9735 407.193,49.6402 402.5,51.5C 402.5,50.5 402.5,49.5 402.5,48.5C 407.833,48.5 413.167,48.5 418.5,48.5C 418.784,50.4147 418.451,52.0813 417.5,53.5 Z"/></g>
<g><path style="opacity:0.899" fill="#9f9f9f" d="M 17.5,37.5 C 15.7289,45.3529 15.0622,53.3529 15.5,61.5C 13.0276,55.3772 12.8609,49.0439 15,42.5C 15.3736,40.5087 16.207,38.842 17.5,37.5 Z"/></g>
<g><path style="opacity:0.498" fill="#c2c2c2" d="M 317.5,46.5 C 316.167,48.5 314.5,50.1667 312.5,51.5C 313.167,48.8333 314.833,47.1667 317.5,46.5 Z"/></g>
<g><path style="opacity:0.2" fill="#cbcbcb" d="M 550.5,46.5 C 550.678,50.1224 550.011,53.4557 548.5,56.5C 548.549,52.9219 549.215,49.5885 550.5,46.5 Z"/></g>
<g><path style="opacity:0.847" fill="#ababab" d="M 333.5,50.5 C 335.048,50.8212 335.715,51.8212 335.5,53.5C 334.599,52.7095 333.932,51.7095 333.5,50.5 Z"/></g>
<g><path style="opacity:0.62" fill="#bcbcbc" d="M 512.5,48.5 C 512.323,52.7076 510.99,56.3743 508.5,59.5C 509.462,55.6052 510.796,51.9385 512.5,48.5 Z"/></g>
<g><path style="opacity:0.224" fill="#d4d4d4" d="M 526.5,45.5 C 526.451,49.0781 525.785,52.4115 524.5,55.5C 524.322,51.8776 524.989,48.5443 526.5,45.5 Z"/></g>
<g><path style="opacity:0.714" fill="#a6a6a6" d="M 255.5,51.5 C 253.383,53.6545 250.716,54.6545 247.5,54.5C 249.936,53.129 252.603,52.129 255.5,51.5 Z"/></g>
<g><path style="opacity:0.188" fill="#d7d7d7" d="M 288.5,47.5 C 288.435,50.4282 287.768,53.0948 286.5,55.5C 286.294,52.5049 286.96,49.8383 288.5,47.5 Z"/></g>
<g><path style="opacity:0.498" fill="#b0b0b0" d="M 312.5,51.5 C 312.573,53.0269 311.906,54.0269 310.5,54.5C 310.427,52.9731 311.094,51.9731 312.5,51.5 Z"/></g>
<g><path style="opacity:0.537" fill="#cccccc" d="M 564.5,54.5 C 563.041,54.4326 561.708,54.7659 560.5,55.5C 561.103,51.8805 562.436,51.5472 564.5,54.5 Z"/></g>
<g><path style="opacity:0.557" fill="#b9b9b9" d="M 221.5,52.5 C 224.189,53.1894 225.856,54.856 226.5,57.5C 224.451,56.1182 222.785,54.4516 221.5,52.5 Z"/></g>
<g><path style="opacity:0.265" fill="#d0d0d0" d="M 245.5,51.5 C 245.263,52.791 245.596,53.791 246.5,54.5C 245.528,55.7514 244.861,55.418 244.5,53.5C 244.543,52.5836 244.876,51.9169 245.5,51.5 Z"/></g>
<g><path style="opacity:0.451" fill="#b2b2b2" d="M 443.5,49.5 C 443.001,53.4899 442.501,57.4899 442,61.5C 441.617,62.056 441.117,62.3893 440.5,62.5C 440.936,57.9207 441.936,53.5874 443.5,49.5 Z"/></g>
<g><path style="opacity:0.2" fill="#d1d1d1" d="M 431.5,53.5 C 431.002,58.1522 430.669,62.8189 430.5,67.5C 429.211,62.7539 429.544,58.0872 431.5,53.5 Z"/></g>
<g><path style="opacity:1" fill="#757575" d="M 564.5,54.5 C 565.301,56.0418 565.634,57.7085 565.5,59.5C 564.14,65.534 560.807,70.2007 555.5,73.5C 554.387,71.2431 552.721,70.5764 550.5,71.5C 546.524,70.8374 545.191,68.8374 546.5,65.5C 546.833,66.5 547.5,67.1667 548.5,67.5C 551.125,68.3798 553.458,67.7131 555.5,65.5C 556.906,65.0269 557.573,64.0269 557.5,62.5C 558.227,60.0462 559.227,57.7128 560.5,55.5C 561.708,54.7659 563.041,54.4326 564.5,54.5 Z"/></g>
<g><path style="opacity:0.761" fill="#bfbfbf" d="M 564.5,54.5 C 568.143,55.461 568.476,57.1276 565.5,59.5C 565.634,57.7085 565.301,56.0418 564.5,54.5 Z"/></g>
<g><path style="opacity:0.396" fill="#c9c9c9" d="M 535.5,55.5 C 535.946,58.0101 535.28,60.0101 533.5,61.5C 533.875,59.3024 534.542,57.3024 535.5,55.5 Z"/></g>
<g><path style="opacity:0.439" fill="#b7b7b7" d="M 206.5,58.5 C 208.027,58.427 209.027,59.0937 209.5,60.5C 207.973,60.573 206.973,59.9063 206.5,58.5 Z"/></g>
<g><path style="opacity:0.161" fill="#d3d3d3" d="M 253.5,58.5 C 251.786,59.7384 249.786,60.405 247.5,60.5C 249.102,58.9261 251.102,58.2594 253.5,58.5 Z"/></g>
<g><path style="opacity:0.086" fill="#e9e9e9" d="M 464.5,59.5 C 461.203,59.89 458.203,60.89 455.5,62.5C 454.596,61.791 454.263,60.791 454.5,59.5C 457.833,59.5 461.167,59.5 464.5,59.5 Z"/></g>
<g><path style="opacity:0.357" fill="#bfbfbf" d="M 498.5,54.5 C 497.838,58.4659 497.505,62.4659 497.5,66.5C 496.842,65.2067 496.508,63.7067 496.5,62C 496.408,59.1789 497.074,56.6789 498.5,54.5 Z"/></g>
<g><path style="opacity:0.757" fill="#afafaf" d="M 134.5,57.5 C 134.946,60.0101 134.28,62.0101 132.5,63.5C 132.875,61.3024 133.542,59.3024 134.5,57.5 Z"/></g>
<g><path style="opacity:0.345" fill="#c7c7c7" d="M 354.5,59.5 C 355.906,59.9731 356.573,60.9731 356.5,62.5C 355.094,62.0269 354.427,61.0269 354.5,59.5 Z"/></g>
<g><path style="opacity:0.212" fill="#d5d5d5" d="M 246.5,60.5 C 245.766,61.7079 245.433,63.0413 245.5,64.5C 244.876,64.0831 244.543,63.4164 244.5,62.5C 244.747,61.2867 245.414,60.62 246.5,60.5 Z"/></g>
<g><path style="opacity:0.235" fill="#cfcfcf" d="M 286.5,56.5 C 286.118,61.0918 285.118,65.4251 283.5,69.5C 283.627,64.8485 284.627,60.5152 286.5,56.5 Z"/></g>
<g><path style="opacity:0.824" fill="#aeaeae" d="M 89.5,60.5 C 89.8799,62.698 89.2132,64.3646 87.5,65.5C 87.4021,63.4471 88.0687,61.7804 89.5,60.5 Z"/></g>
<g><path style="opacity:0.282" fill="#c2c2c2" d="M 524.5,56.5 C 523.949,59.8067 523.616,63.1401 523.5,66.5C 522.844,65.3784 522.511,64.0451 522.5,62.5C 522.361,60.1175 523.028,58.1175 524.5,56.5 Z"/></g>
<g><path style="opacity:0.573" fill="#b8b8b8" d="M 548.5,56.5 C 548.086,60.2822 548.086,63.9489 548.5,67.5C 547.5,67.1667 546.833,66.5 546.5,65.5C 546.858,62.3112 547.525,59.3112 548.5,56.5 Z"/></g>
<g><path style="opacity:0.439" fill="#cccccc" d="M 56.5,67.5 C 56.6716,66.5084 56.3382,65.8417 55.5,65.5C 55.3691,64.6236 55.7025,63.9569 56.5,63.5C 57.782,64.9584 57.782,66.2918 56.5,67.5 Z"/></g>
<g><path style="opacity:0.576" fill="#b2b2b2" d="M 120.5,58.5 C 119.924,61.607 119.924,64.607 120.5,67.5C 119.053,66.8658 118.387,65.6991 118.5,64C 118.701,61.8886 119.367,60.0552 120.5,58.5 Z"/></g>
<g><path style="opacity:0.282" fill="#cecece" d="M 401.5,58.5 C 401.247,62.0399 400.581,65.3733 399.5,68.5C 399.159,64.8405 399.825,61.5072 401.5,58.5 Z"/></g>
<g><path style="opacity:0.576" fill="#bebebe" d="M 506.5,63.5 C 506.573,65.0269 505.906,66.0269 504.5,66.5C 504.427,64.9731 505.094,63.9731 506.5,63.5 Z"/></g>
<g><path style="opacity:0.608" fill="#bdbdbd" d="M 532.5,63.5 C 532.573,65.0269 531.906,66.0269 530.5,66.5C 530.427,64.9731 531.094,63.9731 532.5,63.5 Z"/></g>
<g><path style="opacity:0.345" fill="#c7c7c7" d="M 557.5,62.5 C 557.573,64.0269 556.906,65.0269 555.5,65.5C 555.427,63.9731 556.094,62.9731 557.5,62.5 Z"/></g>
<g><path style="opacity:0.173" fill="#e0e0e0" d="M 201.5,66.5 C 200.833,67.1667 200.167,67.8333 199.5,68.5C 199.281,67.325 199.614,66.325 200.5,65.5C 201.107,65.6236 201.44,65.9569 201.5,66.5 Z"/></g>
<g><path style="opacity:0.333" fill="#c8c8c8" d="M 273.5,58.5 C 273.706,61.4951 273.04,64.1617 271.5,66.5C 271.565,63.5718 272.232,60.9052 273.5,58.5 Z"/></g>
<g><path style="opacity:1" fill="#8f8f8f" d="M 356.5,62.5 C 358.588,64.3356 359.921,66.6689 360.5,69.5C 357.013,68.5168 355.68,66.1834 356.5,62.5 Z"/></g>
<g><path style="opacity:0.894" fill="#a5a5a5" d="M 455.5,62.5 C 456.345,63.6715 457.011,65.0048 457.5,66.5C 455.824,65.8166 455.157,64.4832 455.5,62.5 Z"/></g>
<g><path style="opacity:0.981" fill="#949494" d="M 345.5,69.5 C 344.883,69.3893 344.383,69.056 344,68.5C 342.961,69.7101 341.794,70.7101 340.5,71.5C 340.68,65.8985 342.346,65.2318 345.5,69.5 Z"/></g>
<g><path style="opacity:1" fill="#7e7e7e" d="M 536.5,72.5 C 535.778,72.0825 535.278,71.4158 535,70.5C 533.568,72.4388 531.735,73.7721 529.5,74.5C 530.794,65.3978 533.128,64.7311 536.5,72.5 Z"/></g>
<g><path style="opacity:0.62" fill="#b1b1b1" d="M 54.5,66.5 C 54.0269,67.9063 53.0269,68.573 51.5,68.5C 51.9731,67.0937 52.9731,66.427 54.5,66.5 Z"/></g>
<g><path style="opacity:0.922" fill="#9c9c9c" d="M 339.5,62.5 C 338.256,66.4119 335.589,68.4119 331.5,68.5C 334.404,66.9449 337.07,64.9449 339.5,62.5 Z"/></g>
<g><path style="opacity:0.557" fill="#c4c4c4" d="M 497.5,66.5 C 498.5,66.8333 499.167,67.5 499.5,68.5C 498.167,68.5 497.5,67.8333 497.5,66.5 Z"/></g>
<g><path style="opacity:0.149" fill="#dbdbdb" d="M 504.5,66.5 C 503.713,68.1042 502.38,68.7709 500.5,68.5C 501.514,67.3263 502.847,66.6596 504.5,66.5 Z"/></g>
<g><path style="opacity:0.082" fill="#d5d5d5" d="M 523.5,66.5 C 525.042,67.3007 526.708,67.634 528.5,67.5C 527.903,68.1386 527.07,68.472 526,68.5C 524.624,68.3158 523.791,67.6491 523.5,66.5 Z"/></g>
<g><path style="opacity:0.867" fill="#a6a6a6" d="M 33.5,67.5 C 34.7095,67.9321 35.7095,68.5987 36.5,69.5C 34.8212,69.7148 33.8212,69.0481 33.5,67.5 Z"/></g>
<g><path style="opacity:0.991" fill="#868686" d="M 55.5,65.5 C 56.3382,65.8417 56.6716,66.5084 56.5,67.5C 57.6502,72.6726 55.6502,75.6726 50.5,76.5C 51.0283,75.2794 51.695,74.1127 52.5,73C 51.7471,71.513 50.9138,71.3463 50,72.5C 46.0648,71.8622 42.2315,71.1955 38.5,70.5C 42.993,70.7306 47.3263,70.064 51.5,68.5C 53.0269,68.573 54.0269,67.9063 54.5,66.5C 54.5,65.8333 54.8333,65.5 55.5,65.5 Z"/></g>
<g><path style="opacity:0.882" fill="#a7a7a7" d="M 62.5,68.5 C 64.4456,69.0347 65.4456,70.368 65.5,72.5C 64.0256,71.5637 63.0256,70.2303 62.5,68.5 Z"/></g>
<g><path style="opacity:0.573" fill="#bcbcbc" d="M 430.5,67.5 C 432.167,68.8333 433.833,68.8333 435.5,67.5C 433.833,70.1667 432.167,70.1667 430.5,67.5 Z"/></g>
<g><path style="opacity:0.039" fill="#e4e4e4" d="M 444.5,69.5 C 443.833,69.8333 443.167,70.1667 442.5,70.5C 442.711,68.5759 443.377,68.2426 444.5,69.5 Z"/></g>
<g><path style="opacity:0.235" fill="#e2e2e2" d="M 509.5,69.5 C 510.623,68.2426 511.289,68.5759 511.5,70.5C 510.833,70.1667 510.167,69.8333 509.5,69.5 Z"/></g>
<g><path style="opacity:0.02" fill="#d5d5d5" d="M 96.5,68.5 C 96.5,69.8333 95.8333,70.5 94.5,70.5C 94.8333,69.5 95.5,68.8333 96.5,68.5 Z"/></g>
<g><path style="opacity:0.588" fill="#b9b9b9" d="M 120.5,67.5 C 121.721,68.0283 122.887,68.695 124,69.5C 125.011,68.6634 126.178,68.33 127.5,68.5C 127.038,69.8799 126.038,70.5466 124.5,70.5C 122.347,70.4387 121.014,69.4387 120.5,67.5 Z"/></g>
<g><path style="opacity:0.339" fill="#b2b2b2" d="M 248.5,68.5 C 252.167,69.8333 255.833,69.8333 259.5,68.5C 259.389,69.1174 259.056,69.6174 258.5,70C 255.5,70.6667 252.5,70.6667 249.5,70C 248.944,69.6174 248.611,69.1174 248.5,68.5 Z"/></g>
<g><path style="opacity:0.831" fill="#a3a3a3" d="M 259.5,68.5 C 260.386,67.2241 261.386,67.2241 262.5,68.5C 263.705,69.9948 263.705,71.3281 262.5,72.5C 262.446,70.368 261.446,69.0347 259.5,68.5 Z"/></g>
<g><path style="opacity:0.62" fill="#bdbdbd" d="M 444.5,69.5 C 446.404,69.7376 447.738,70.7376 448.5,72.5C 446.596,72.2624 445.262,71.2624 444.5,69.5 Z"/></g>
<g><path style="opacity:0.702" fill="#acacac" d="M 457.5,66.5 C 462.189,69.4479 467.189,70.1146 472.5,68.5C 468.454,70.7976 464.12,71.131 459.5,69.5C 458.449,68.7777 457.782,67.7777 457.5,66.5 Z"/></g>
<g><path style="opacity:0.396" fill="#bbbbbb" d="M 360.5,69.5 C 361.906,69.9731 362.573,70.9731 362.5,72.5C 361.094,72.0269 360.427,71.0269 360.5,69.5 Z"/></g>
<g><path style="opacity:0.737" fill="#b4b4b4" d="M 65.5,72.5 C 67.4044,72.7376 68.7377,73.7376 69.5,75.5C 67.5956,75.2624 66.2623,74.2624 65.5,72.5 Z"/></g>
<g><path style="opacity:0.016" fill="#d4d4d4" d="M 311.5,71.5 C 312.5,71.8333 313.167,72.5 313.5,73.5C 312.167,73.5 311.5,72.8333 311.5,71.5 Z"/></g>
<g><path style="opacity:0.655" fill="#b6b6b6" d="M 418.5,72.5 C 420.027,72.427 421.027,73.0937 421.5,74.5C 419.973,74.573 418.973,73.9063 418.5,72.5 Z"/></g>
<g><path style="opacity:0.282" fill="#c6c6c6" d="M 448.5,72.5 C 448.833,72.5 449.167,72.5 449.5,72.5C 450.5,72.8333 451.167,73.5 451.5,74.5C 449.973,74.573 448.973,73.9063 448.5,72.5 Z"/></g>
<g><path style="opacity:0.62" fill="#bababa" d="M 199.5,70.5 C 199.325,72.6208 199.659,74.6208 200.5,76.5C 199.244,76.5386 198.244,76.0386 197.5,75C 198.099,73.3775 198.766,71.8775 199.5,70.5 Z"/></g>
<g><path style="opacity:0.518" fill="#aaaaaa" d="M 313.5,73.5 C 315.027,73.427 316.027,74.0937 316.5,75.5C 314.973,75.573 313.973,74.9063 313.5,73.5 Z"/></g>
<g><path style="opacity:0.455" fill="#b5b5b5" d="M 385.5,68.5 C 385.5,70.5 385.5,72.5 385.5,74.5C 389.5,74.5 393.5,74.5 397.5,74.5C 397.402,72.4471 398.069,70.7804 399.5,69.5C 399.167,71.5 398.833,73.5 398.5,75.5C 393.456,75.8275 388.456,75.4941 383.5,74.5C 384.05,72.3432 384.717,70.3432 385.5,68.5 Z"/></g>
<g><path style="opacity:0.259" fill="#cfcfcf" d="M 110.5,74.5 C 112.027,74.427 113.027,75.0937 113.5,76.5C 111.973,76.573 110.973,75.9063 110.5,74.5 Z"/></g>
<g><path style="opacity:0.455" fill="#bebebe" d="M 144.5,69.5 C 144.5,71.8333 144.5,74.1667 144.5,76.5C 140.629,76.815 136.962,76.4816 133.5,75.5C 136.833,75.5 140.167,75.5 143.5,75.5C 143.205,73.2646 143.539,71.2646 144.5,69.5 Z"/></g>
<g><path style="opacity:0.455" fill="#b8b8b8" d="M 154.5,67.5 C 154.78,70.2724 154.113,72.7724 152.5,75C 156.152,75.4986 159.818,75.6653 163.5,75.5C 159.317,76.8111 154.984,76.8111 150.5,75.5C 152.412,73.0091 153.746,70.3425 154.5,67.5 Z"/></g>
<g><path style="opacity:0.455" fill="#b8b8b8" d="M 178.5,74.5 C 181.962,75.4816 185.629,75.815 189.5,75.5C 185.317,76.8111 180.984,76.8111 176.5,75.5C 176.957,74.7025 177.624,74.3691 178.5,74.5 Z"/></g>
<g><path style="opacity:0.455" fill="#b7b7b7" d="M 269.5,74.5 C 272.962,75.4816 276.629,75.815 280.5,75.5C 276.317,76.8111 271.984,76.8111 267.5,75.5C 267.957,74.7025 268.624,74.3691 269.5,74.5 Z"/></g>
<g><path style="opacity:0.463" fill="#b3b3b3" d="M 347.5,72.5 C 352.461,75.2334 357.795,76.0668 363.5,75C 362.748,74.3292 362.414,73.4959 362.5,72.5C 364.104,73.287 364.771,74.6203 364.5,76.5C 360.154,76.6657 355.821,76.499 351.5,76C 349.676,75.34 348.343,74.1733 347.5,72.5 Z"/></g>
<g><path style="opacity:0.593" fill="#b1b1b1" d="M 29.5,75.5 C 36.1311,76.331 42.7978,76.6643 49.5,76.5C 46.8541,77.1644 44.0208,77.4978 41,77.5C 36.8673,77.7143 33.034,77.0476 29.5,75.5 Z"/></g>
<g><path style="opacity:0.412" fill="#b6b6b6" d="M 69.5,75.5 C 74.4635,76.254 79.4635,76.5874 84.5,76.5C 80.3537,77.647 76.0204,77.8136 71.5,77C 70.5842,76.7216 69.9175,76.2216 69.5,75.5 Z"/></g>
</svg>
