<?xml version="1.0" encoding="UTF-8"?>
<!DOCTYPE svg PUBLIC "-//W3C//DTD SVG 1.1//EN" "http://www.w3.org/Graphics/SVG/1.1/DTD/svg11.dtd">
<svg xmlns="http://www.w3.org/2000/svg" version="1.1" width="730px" height="86px" style="shape-rendering:geometricPrecision; text-rendering:geometricPrecision; image-rendering:optimizeQuality; fill-rule:evenodd; clip-rule:evenodd" xmlns:xlink="http://www.w3.org/1999/xlink">
<g><path style="opacity:0.881" fill="#3d888c" d="M 697.5,-0.5 C 703.833,-0.5 710.167,-0.5 716.5,-0.5C 712.49,22.5612 708.156,45.5612 703.5,68.5C 703.712,72.5577 705.712,74.0577 709.5,73C 712.333,71.5 714.5,69.3333 716,66.5C 717.97,61.8826 720.303,57.5492 723,53.5C 725.279,54.3914 727.446,55.3914 729.5,56.5C 729.5,57.5 729.5,58.5 729.5,59.5C 726.246,68.1566 720.913,75.3233 713.5,81C 705.889,85.3759 698.222,85.5426 690.5,81.5C 689.139,79.9716 687.972,78.3049 687,76.5C 680.509,83.0833 672.676,85.5833 663.5,84C 658.959,82.2925 655.959,79.1258 654.5,74.5C 646.238,84.8686 636.238,87.0352 624.5,81C 622.383,79.2691 620.883,77.1024 620,74.5C 606.142,85.1194 590.975,87.286 574.5,81C 571.705,79.2068 569.205,77.0402 567,74.5C 557.758,84.8067 546.924,86.9734 534.5,81C 529.855,75.6513 528.355,69.4846 530,62.5C 530.744,58.2729 531.578,54.1062 532.5,50C 525.842,49.5004 519.175,49.3337 512.5,49.5C 510.996,60.5191 509.329,71.5191 507.5,82.5C 500.833,82.5 494.167,82.5 487.5,82.5C 492.49,56.8711 497.323,31.2045 502,5.5C 508.41,4.52234 514.91,4.189 521.5,4.5C 519.501,16.163 517.501,27.8297 515.5,39.5C 521.833,39.5 528.167,39.5 534.5,39.5C 536.557,28.1611 538.724,16.8278 541,5.5C 547.333,4.16667 553.667,4.16667 560,5.5C 555.994,26.3721 552.161,47.3721 548.5,68.5C 549.329,73.5515 551.996,74.7181 556.5,72C 558.333,70.8333 559.833,69.3333 561,67.5C 562.884,60.9297 564.55,54.263 566,47.5C 575.431,30.7061 589.264,25.5395 607.5,32C 616.868,40.898 616.535,49.5647 606.5,58C 604.5,59 602.5,60 600.5,61C 594.198,61.9875 587.865,62.8208 581.5,63.5C 584.997,73.5221 591.997,77.0221 602.5,74C 609.359,72.1445 614.859,68.3112 619,62.5C 621.152,47.0283 629.319,36.195 643.5,30C 648.755,28.9532 653.755,29.4532 658.5,31.5C 659.308,31.1924 659.975,30.6924 660.5,30C 666.167,29.3333 671.833,29.3333 677.5,30C 678.022,30.5613 678.355,31.228 678.5,32C 676.274,44.0203 673.941,56.0203 671.5,68C 673.391,72.9848 676.557,73.8182 681,70.5C 682.667,67.8333 684.333,65.1667 686,62.5C 689.882,41.4864 693.715,20.4864 697.5,-0.5 Z M 593.5,38.5 C 599.177,39.1843 600.677,42.1843 598,47.5C 593.868,52.4888 588.701,54.1555 582.5,52.5C 584.282,46.2273 587.949,41.5606 593.5,38.5 Z M 649.5,40.5 C 654.993,39.178 657.493,41.178 657,46.5C 655.112,56.1895 650.946,64.6895 644.5,72C 641.593,74.3605 639.426,73.8605 638,70.5C 637.112,58.6219 640.945,48.6219 649.5,40.5 Z"/></g>
<g><path style="opacity:0.872" fill="#3d888c" d="M 46.5,85.5 C 39.1667,85.5 31.8333,85.5 24.5,85.5C 12.234,81.5668 3.90067,73.5668 -0.5,61.5C -0.5,55.5 -0.5,49.5 -0.5,43.5C 7.47854,18.562 24.6452,4.89531 51,2.5C 57.0864,2.81873 62.9198,4.15206 68.5,6.5C 69.4388,12.4157 68.6055,18.0824 66,23.5C 60.4034,12.3064 51.9034,9.47307 40.5,15C 22.6194,27.2915 16.1194,44.1249 21,65.5C 27.9554,77.1273 37.4554,79.6273 49.5,73C 51.9768,71.3573 54.3102,69.524 56.5,67.5C 56.8333,68 57.1667,68.5 57.5,69C 56.4577,73.2177 55.291,77.3844 54,81.5C 51.5828,83.1276 49.0828,84.461 46.5,85.5 Z"/></g>
<g><path style="opacity:0.887" fill="#3d888c" d="M 418.5,85.5 C 413.167,85.5 407.833,85.5 402.5,85.5C 386.229,77.6665 383.062,65.9998 393,50.5C 398.49,44.6755 404.823,40.0088 412,36.5C 405.688,16.8085 412.855,5.47517 433.5,2.5C 448.47,2.95042 453.97,10.2838 450,24.5C 446.116,30.3591 440.95,34.6925 434.5,37.5C 437.167,41.5 439.833,45.5 442.5,49.5C 445.223,47.0658 447.723,44.3991 450,41.5C 450.483,40.552 450.649,39.552 450.5,38.5C 455.214,38.1734 459.88,38.5067 464.5,39.5C 459.02,46.1479 453.353,52.6479 447.5,59C 452.876,66.9163 457.876,75.0829 462.5,83.5C 454.845,85.2638 447.511,84.4304 440.5,81C 438.667,78.5 436.833,76 435,73.5C 430.371,78.8788 424.871,82.8788 418.5,85.5 Z M 428.5,12.5 C 430.857,12.3367 433.19,12.5034 435.5,13C 437.877,20.0958 436.044,25.9292 430,30.5C 424.816,24.7567 424.316,18.7567 428.5,12.5 Z M 415.5,43.5 C 416.496,43.4142 417.329,43.7476 418,44.5C 421.849,51.0101 425.683,57.5101 429.5,64C 424.943,72.4554 418.276,74.9554 409.5,71.5C 407.2,69.1638 405.867,66.3304 405.5,63C 406.464,55.2696 409.797,48.7696 415.5,43.5 Z"/></g>
<g><path style="opacity:0.886" fill="#3d888c" d="M 351.5,4.5 C 357.833,4.5 364.167,4.5 370.5,4.5C 365.656,29.2257 360.49,53.8924 355,78.5C 354.293,80.0806 353.46,81.5806 352.5,83C 346.557,84.6957 340.557,84.8624 334.5,83.5C 336.671,80.4946 338.171,77.1612 339,73.5C 343.184,52.0978 347.684,30.7645 352.5,9.5C 351.954,7.86529 351.62,6.19863 351.5,4.5 Z"/></g>
<g><path style="opacity:0.887" fill="#3d888c" d="M 92.5,85.5 C 87.1667,85.5 81.8333,85.5 76.5,85.5C 63.3063,79.1012 58.8063,68.7679 63,54.5C 70.6545,35.5896 84.4878,28.0896 104.5,32C 117.434,38.8963 121.267,49.3963 116,63.5C 111.167,74.17 103.334,81.5033 92.5,85.5 Z M 90.5,39.5 C 94.0897,39.5441 96.5897,41.2108 98,44.5C 100.863,54.7862 99.5296,64.4528 94,73.5C 88.7845,78.0192 84.4512,77.3525 81,71.5C 78.2871,61.0658 79.9538,51.3991 86,42.5C 87.6516,41.6006 89.1516,40.6006 90.5,39.5 Z"/></g>
<g><path style="opacity:0.883" fill="#3d888c" d="M 218.5,30.5 C 234.935,28.1119 242.435,35.1119 241,51.5C 238.879,61.5638 236.546,71.5638 234,81.5C 232.829,82.8932 231.329,83.7265 229.5,84C 224.467,84.8289 219.467,84.6623 214.5,83.5C 216.297,81.8689 217.464,79.8689 218,77.5C 220.039,67.6408 222.205,57.8075 224.5,48C 224.333,43.8333 222.167,41.6667 218,41.5C 212.534,42.2989 208.868,45.2989 207,50.5C 204.667,60.5 202.333,70.5 200,80.5C 198.786,82.0488 197.286,83.2155 195.5,84C 190.136,84.8295 184.802,84.6628 179.5,83.5C 182.021,81.4626 183.521,78.796 184,75.5C 185.951,64.0791 188.284,52.7458 191,41.5C 191.777,38.5706 191.61,35.7372 190.5,33C 195.745,31.0967 201.078,31.0967 206.5,33C 207.701,33.9025 208.535,35.0692 209,36.5C 211.843,33.8373 215.009,31.8373 218.5,30.5 Z"/></g>
<g><path style="opacity:0.859" fill="#3d888c" d="M 265.5,85.5 C 259.167,85.5 252.833,85.5 246.5,85.5C 244.68,84.9373 243.347,83.7706 242.5,82C 243.512,77.7196 244.678,73.5529 246,69.5C 249.922,76.6114 255.755,78.7781 263.5,76C 266.774,73.396 267.107,70.5627 264.5,67.5C 261.327,65.4128 257.994,63.5795 254.5,62C 247.004,55.5084 245.837,48.0084 251,39.5C 258.767,31.2476 268.267,28.4142 279.5,31C 281.436,31.813 283.436,32.313 285.5,32.5C 285.143,37.3134 284.143,41.98 282.5,46.5C 277.774,39.4725 271.607,37.8059 264,41.5C 263.333,43.5 263.333,45.5 264,47.5C 269.332,49.9969 274.332,52.9969 279,56.5C 284.633,65.9179 283.133,74.0845 274.5,81C 271.352,82.4235 268.352,83.9235 265.5,85.5 Z"/></g>
<g><path style="opacity:0.872" fill="#3d888c" d="M 317.5,85.5 C 312.167,85.5 306.833,85.5 301.5,85.5C 287.814,78.2929 283.647,67.2929 289,52.5C 298.252,33.2913 313.085,26.7913 333.5,33C 341.619,40.5664 341.285,47.8997 332.5,55C 323.7,58.6561 314.7,61.8227 305.5,64.5C 304.836,68.6676 306.503,71.8343 310.5,74C 315.847,75.8785 321.014,75.3785 326,72.5C 328.1,74.0332 329.1,76.0332 329,78.5C 325.743,81.952 321.91,84.2853 317.5,85.5 Z M 314.5,39.5 C 321.931,38.7602 324.098,41.7602 321,48.5C 316.434,52.0305 311.268,54.3639 305.5,55.5C 304.782,52.7581 305.282,50.0914 307,47.5C 309.028,44.3078 311.528,41.6411 314.5,39.5 Z"/></g>
<g><path style="opacity:0.88" fill="#3d888c" d="M 145.5,85.5 C 141.167,85.5 136.833,85.5 132.5,85.5C 126.19,82.586 122.523,77.586 121.5,70.5C 123.638,58.9762 125.971,47.4762 128.5,36C 127.852,34.5603 127.519,33.0603 127.5,31.5C 133.758,31.1903 139.924,31.5236 146,32.5C 144.231,44.3487 142.065,56.1821 139.5,68C 138.845,72.3416 140.678,74.5082 145,74.5C 150.037,73.8064 153.704,71.1398 156,66.5C 158.312,56.4364 160.812,46.4364 163.5,36.5C 162.96,35.2519 162.293,34.0852 161.5,33C 164.647,31.8723 167.98,31.3723 171.5,31.5C 174.5,31.6667 177.5,31.8333 180.5,32C 178.44,46.7852 175.607,61.6185 172,76.5C 171.289,78.8991 171.456,81.2324 172.5,83.5C 168.205,84.6609 163.871,84.8275 159.5,84C 157.152,83.6541 155.319,82.4875 154,80.5C 151.254,82.4554 148.42,84.1221 145.5,85.5 Z"/></g>
</svg>
